<svg width="2770" height="1139" viewBox="0 0 2770 1139" fill="none" xmlns="http://www.w3.org/2000/svg">
<g clip-path="url(#clip0_1871_1342)">
<path d="M572.267 400.604C572.267 494.926 648.73 571.389 743.051 571.389C648.73 571.389 572.268 647.852 572.267 742.173C572.267 647.852 495.804 571.389 401.483 571.389C495.805 571.389 572.267 494.926 572.267 400.604Z" fill="#00E8F5"/>
<path d="M570.159 0C457.566 -1.34266e-06 347.501 33.3877 253.884 95.941C160.266 158.494 87.3 247.404 44.2126 351.426C1.12513 455.449 -10.1485 569.912 11.8173 680.341C33.7831 790.771 88.0017 892.207 167.617 971.822L248.142 891.297C184.453 827.608 141.081 746.464 123.509 658.125C105.937 569.786 114.956 478.22 149.424 395.006C183.892 311.793 242.262 240.669 317.152 190.629C392.042 140.589 480.089 113.88 570.159 113.88L570.159 0Z" fill="url(#paint0_linear_1871_1342)"/>
<path d="M570.159 1138.56C682.752 1138.56 792.816 1105.17 886.434 1042.62C980.051 980.066 1053.02 891.157 1096.1 787.135C1139.19 683.112 1150.47 568.649 1128.5 458.219C1106.53 347.79 1052.32 246.354 972.701 166.738L892.175 247.264C955.864 310.952 999.237 392.097 1016.81 480.436C1034.38 568.775 1025.36 660.341 990.894 743.555C956.426 826.768 898.056 897.892 823.166 947.932C748.275 997.972 660.228 1024.68 570.159 1024.68L570.159 1138.56Z" fill="url(#paint1_linear_1871_1342)"/>
<path d="M128.98 456.264C158.954 339.256 234.181 238.948 338.113 177.405C442.045 115.863 566.167 98.1278 683.175 128.102C800.183 158.075 900.491 233.303 962.033 337.234C1023.58 441.166 1041.31 565.289 1011.34 682.296L901.07 654.049C923.552 566.286 910.249 473.187 864.089 395.232C817.928 317.276 742.691 260.851 654.928 238.369C567.165 215.887 474.065 229.189 396.11 275.35C318.155 321.511 261.73 396.748 239.248 484.511L128.98 456.264Z" fill="url(#paint2_linear_1871_1342)"/>
<path d="M1011.34 682.304C981.359 799.311 906.131 899.619 802.198 961.159C698.265 1022.7 574.142 1040.43 457.135 1010.46C340.128 980.481 239.821 905.252 178.28 801.319C116.739 697.387 99.0065 573.264 128.982 456.256L239.249 484.505C216.766 572.268 230.066 665.368 276.226 743.324C322.385 821.28 397.621 877.706 485.384 900.19C573.147 922.673 666.246 909.373 744.202 863.213C822.158 817.054 878.585 741.818 901.068 654.055L1011.34 682.304Z" fill="url(#paint3_linear_1871_1342)"/>
<path d="M570.159 910.848C696.302 910.848 818.872 868.952 918.622 791.738C1018.37 714.525 1089.65 606.368 1121.27 484.251L1011.02 455.708C985.732 553.397 928.711 639.918 848.915 701.686C769.119 763.453 671.068 796.968 570.159 796.968L570.159 910.848Z" fill="#00A6BC"/>
<path d="M570.159 227.712C444.016 227.712 321.446 269.608 221.696 346.822C121.945 424.035 50.6657 532.193 19.0495 654.309L129.294 682.852C154.586 585.163 211.607 498.642 291.403 436.875C371.199 375.107 469.25 341.592 570.159 341.592L570.159 227.712Z" fill="#00A6BC"/>
</g>
<path d="M2637.91 800.154C2598.62 800.154 2566.36 791.605 2541.12 774.507C2516.08 757.205 2500.71 733.084 2495.01 702.144L2550.58 693.289C2555.06 711.202 2565.34 725.451 2581.42 736.035C2597.5 746.417 2617.45 751.607 2641.27 751.607C2663.86 751.607 2681.57 746.925 2694.39 737.562C2707.22 728.199 2713.63 715.477 2713.63 699.396C2713.63 690.033 2711.49 682.501 2707.22 676.802C2702.94 670.899 2694.09 665.403 2680.65 660.314C2667.42 655.225 2647.37 649.119 2620.5 641.994C2591.4 634.259 2568.5 626.219 2551.8 617.873C2535.11 609.528 2523.21 599.859 2516.08 588.867C2508.96 577.875 2505.39 564.543 2505.39 548.869C2505.39 529.532 2510.69 512.637 2521.27 498.185C2531.86 483.529 2546.61 472.232 2565.54 464.293C2584.68 456.355 2606.87 452.385 2632.11 452.385C2657.14 452.385 2679.53 456.355 2699.28 464.293C2719.02 472.232 2734.9 483.529 2746.91 498.185C2759.12 512.637 2766.35 529.532 2768.59 548.869L2713.02 558.945C2710.37 541.236 2701.82 527.292 2687.37 517.115C2673.12 506.937 2654.7 501.543 2632.11 500.932C2610.73 500.118 2593.33 503.884 2579.89 512.23C2566.66 520.575 2560.05 531.872 2560.05 546.121C2560.05 554.06 2562.49 560.879 2567.38 566.578C2572.47 572.278 2581.73 577.672 2595.16 582.76C2608.8 587.849 2628.54 593.651 2654.4 600.164C2683.5 607.492 2706.4 615.532 2723.09 624.285C2739.99 632.834 2752 643.012 2759.12 654.818C2766.25 666.42 2769.81 680.771 2769.81 697.869C2769.81 729.623 2758.1 754.66 2734.7 772.98C2711.29 791.096 2679.02 800.154 2637.91 800.154Z" fill="white"/>
<path d="M2293.81 799.849C2272.64 799.849 2254.42 796.491 2239.15 789.774C2224.09 783.056 2211.57 774.1 2201.6 762.905C2191.62 751.709 2183.79 739.293 2178.09 725.655C2172.39 712.017 2168.32 698.073 2165.87 683.825C2163.64 669.576 2162.52 656.243 2162.52 643.826V461.545H2217.48V626.728C2217.48 642.198 2218.9 657.159 2221.75 671.611C2224.6 686.064 2229.38 699.091 2236.1 710.693C2243.02 722.296 2252.18 731.456 2263.58 738.173C2275.18 744.89 2289.63 748.249 2306.94 748.249C2320.57 748.249 2332.99 745.908 2344.19 741.226C2355.38 736.545 2364.95 729.624 2372.89 720.464C2380.83 711.101 2386.93 699.295 2391.21 685.046C2395.48 670.797 2397.62 654.208 2397.62 635.277L2433.34 646.269C2433.34 678.023 2427.54 705.401 2415.94 728.402C2404.54 751.404 2388.36 769.113 2367.39 781.53C2346.63 793.743 2322.1 799.849 2293.81 799.849ZM2403.73 791.3V703.06H2397.62V461.545H2452.27V791.3H2403.73Z" fill="white"/>
<path d="M1943.29 800.46C1918.66 800.46 1898 795.982 1881.31 787.025C1864.82 777.865 1852.3 765.856 1843.75 750.996C1835.41 736.137 1831.23 719.853 1831.23 702.144C1831.23 684.842 1834.49 669.881 1841.01 657.261C1847.72 644.437 1857.09 633.852 1869.1 625.506C1881.11 616.957 1895.46 610.24 1912.15 605.355C1927.82 601.08 1945.33 597.416 1964.66 594.363C1984.2 591.106 2003.95 588.155 2023.9 585.508C2043.85 582.862 2062.47 580.318 2079.77 577.875L2060.23 589.172C2060.84 559.861 2054.94 538.183 2042.52 524.137C2030.31 510.092 2009.14 503.07 1979.01 503.07C1959.07 503.07 1941.56 507.65 1926.5 516.81C1911.64 525.766 1901.15 540.422 1895.05 560.777L1843.45 545.205C1851.39 516.301 1866.75 493.605 1889.55 477.117C1912.35 460.629 1942.37 452.385 1979.62 452.385C2009.55 452.385 2035.19 457.779 2056.57 468.568C2078.14 479.152 2093.61 495.233 2102.98 516.81C2107.66 526.987 2110.61 538.081 2111.83 550.09C2113.05 561.896 2113.66 574.313 2113.66 587.34V791.3H2065.42V712.22L2076.72 719.548C2064.3 746.213 2046.9 766.365 2024.51 780.003C2002.32 793.641 1975.25 800.46 1943.29 800.46ZM1951.53 754.966C1971.08 754.966 1987.97 751.505 2002.22 744.585C2016.67 737.46 2028.27 728.199 2037.03 716.8C2045.78 705.197 2051.48 692.577 2054.12 678.939C2057.18 668.761 2058.81 657.464 2059.01 645.048C2059.42 632.427 2059.62 622.759 2059.62 616.041L2078.55 624.285C2060.84 626.728 2043.44 629.069 2026.34 631.308C2009.24 633.547 1993.06 635.989 1977.79 638.636C1962.53 641.078 1948.79 644.03 1936.57 647.49C1927.62 650.34 1919.17 654.004 1911.23 658.482C1903.5 662.96 1897.19 668.761 1892.3 675.886C1887.62 682.806 1885.28 691.457 1885.28 701.839C1885.28 710.795 1887.52 719.344 1892 727.486C1896.68 735.628 1903.8 742.244 1913.37 747.333C1923.14 752.421 1935.86 754.966 1951.53 754.966Z" fill="white"/>
<path d="M1656.91 791.302V461.547H1705.46V541.238L1697.52 530.857C1701.39 520.679 1706.38 511.316 1712.48 502.767C1718.79 494.218 1725.82 487.195 1733.55 481.699C1742.1 474.778 1751.77 469.486 1762.56 465.822C1773.34 462.158 1784.34 460.021 1795.53 459.41C1806.73 458.596 1817.21 459.308 1826.98 461.547V512.537C1815.58 509.484 1803.06 508.67 1789.43 510.095C1775.79 511.52 1763.17 516.507 1751.56 525.056C1740.98 532.587 1732.74 541.747 1726.83 552.535C1721.13 563.324 1717.16 575.028 1714.93 587.648C1712.69 600.065 1711.57 612.787 1711.57 625.814V791.302H1656.91Z" fill="white"/>
<path d="M1370.05 791.299V351.626H1626.52V405.974H1424.4V544.288H1589.88V598.637H1424.4V791.299H1370.05Z" fill="white"/>
<defs>
<linearGradient id="paint0_linear_1871_1342" x1="128.967" y1="683.136" x2="570.159" y2="0.000224802" gradientUnits="userSpaceOnUse">
<stop stop-color="#00A6BC"/>
<stop offset="1" stop-color="#005D6E"/>
</linearGradient>
<linearGradient id="paint1_linear_1871_1342" x1="1011.35" y1="455.424" x2="570.158" y2="1138.56" gradientUnits="userSpaceOnUse">
<stop stop-color="#00A6BC"/>
<stop offset="1" stop-color="#005D6E"/>
</linearGradient>
<linearGradient id="paint2_linear_1871_1342" x1="570.159" y1="113.856" x2="970.763" y2="735.847" gradientUnits="userSpaceOnUse">
<stop stop-color="#00F5DD"/>
<stop offset="1" stop-color="#005D6E"/>
</linearGradient>
<linearGradient id="paint3_linear_1871_1342" x1="852.69" y1="946.692" x2="55.6982" y2="653.618" gradientUnits="userSpaceOnUse">
<stop stop-color="#00F5DD"/>
<stop offset="1" stop-color="#005D6E"/>
</linearGradient>
<clipPath id="clip0_1871_1342">
<rect width="1138.56" height="1138.56" fill="white" transform="translate(0.878723)"/>
</clipPath>
</defs>
</svg>
